<svg width="24" height="24" viewBox="0 0 24 24" fill="none" xmlns="http://www.w3.org/2000/svg">
<path fill-rule="evenodd" clip-rule="evenodd" d="M12 15.5C13.933 15.5 15.5 13.933 15.5 12C15.5 10.067 13.933 8.5 12 8.5C10.067 8.5 8.5 10.067 8.5 12C8.5 13.933 10.067 15.5 12 15.5ZM12 13.5C12.8284 13.5 13.5 12.8284 13.5 12C13.5 11.1716 12.8284 10.5 12 10.5C11.1716 10.5 10.5 11.1716 10.5 12C10.5 12.8284 11.1716 13.5 12 13.5Z" fill="#7DD3FC"/>
<path fill-rule="evenodd" clip-rule="evenodd" d="M19.4 15.02L21.82 13.13C22.04 12.96 22.1 12.65 21.96 12.4L19.96 8.94C19.82 8.69 19.52 8.6 19.27 8.7L16.42 9.85C15.83 9.4 15.17 9.04 14.46 8.77L13.98 5.74C13.94 5.48 13.72 5.29 13.46 5.29H9.46C9.2 5.29 8.98 5.48 8.94 5.74L8.46 8.77C7.75 9.04 7.09 9.4 6.5 9.85L3.65 8.7C3.4 8.6 3.1 8.69 2.96 8.94L0.96 12.4C0.82 12.65 0.88 12.96 1.1 13.13L3.52 15.02C3.48 15.35 3.46 15.67 3.46 16C3.46 16.33 3.48 16.65 3.52 16.98L1.1 18.87C0.88 19.04 0.82 19.35 0.96 19.6L2.96 23.06C3.1 23.31 3.4 23.4 3.65 23.3L6.5 22.15C7.09 22.6 7.75 22.96 8.46 23.23L8.94 26.26C8.98 26.52 9.2 26.71 9.46 26.71H13.46C13.72 26.71 13.94 26.52 13.98 26.26L14.46 23.23C15.17 22.96 15.83 22.6 16.42 22.15L19.27 23.3C19.52 23.4 19.82 23.31 19.96 23.06L21.96 19.6C22.1 19.35 22.04 19.04 21.82 18.87L19.4 16.98C19.44 16.65 19.46 16.33 19.46 16C19.46 15.67 19.44 15.35 19.4 15.02ZM17.29 16.39L19.08 17.78L18.06 19.55L15.95 18.7C15.38 19.24 14.73 19.68 14.01 19.99L13.66 22.25H11.64L11.29 19.99C10.57 19.68 9.92 19.24 9.35 18.7L7.24 19.55L6.22 17.78L8.01 16.39C7.89 15.96 7.82 15.49 7.82 15C7.82 14.51 7.89 14.04 8.01 13.61L6.22 12.22L7.24 10.45L9.35 11.3C9.92 10.76 10.57 10.32 11.29 10.01L11.64 7.75H13.66L14.01 10.01C14.73 10.32 15.38 10.76 15.95 11.3L18.06 10.45L19.08 12.22L17.29 13.61C17.41 14.04 17.48 14.51 17.48 15C17.48 15.49 17.41 15.96 17.29 16.39Z" fill="#7DD3FC"/>
</svg>
